<?xml version="1.0" ?><svg xmlns="http://www.w3.org/2000/svg" xmlns:xlink="http://www.w3.org/1999/xlink" version="1.1" id="Layer_1" width="128px" height="128px" viewBox="0 0 128 128" enable-background="new 0 0 128 128" xml:space="preserve"><g><path d="M58.157,67.341c-1.967,1.231-3.1,2.841-3.368,4.783c-0.342,2.483,0.736,4.226,1.702,5.25   c1.993,2.116,5.382,3.209,9.051,2.922c8.337-0.649,10.942-7.485,11.479-14.094c-3.137-0.808-6.194-1.21-9.003-1.21   C64.092,64.992,60.653,65.777,58.157,67.341z"/><path d="M117.386,10.681C109,2.272,93.961,2.272,64,2.272c-29.976,0-45.022,0-53.384,8.371C2.272,18.996,2.272,34.036,2.272,64   c0,29.93,0,44.952,8.433,53.362c8.389,8.365,23.396,8.365,53.295,8.365c29.884,0,44.884,0,53.297-8.404   c8.431-8.421,8.431-23.427,8.431-53.323C125.728,34.069,125.728,19.046,117.386,10.681z M32.159,66.818   c0.325,10.631,4.132,35.358,32.406,35.358c15.52,0,27.223-8.442,27.223-19.639c0-6.387-2.109-10.532-7.066-13.384   c-1.673,11.306-8.348,18.322-18.559,19.118c-6.16,0.474-11.803-1.494-15.494-5.412c-3.058-3.245-4.409-7.446-3.804-11.83   c0.598-4.338,3.035-7.958,7.047-10.47c5.683-3.559,13.93-4.468,22.773-2.646c-1.606-8.681-7.167-10.406-10.697-10.589   c-8.369-0.429-11.389,4.669-11.513,4.887l-7.04-3.799c0.212-0.399,5.375-9.785,18.967-9.077   c8.531,0.443,17.612,6.271,18.637,21.101c9.917,4.126,14.749,11.383,14.749,22.101c0,15.757-15.143,27.639-35.223,27.639   c-24.475,0-39.578-16.117-40.402-43.114c-0.507-16.594,3.584-29.861,11.833-38.365c6.999-7.216,16.726-10.875,28.912-10.875   c29.28,0,37.142,22.329,38.854,29.173l-7.762,1.941c-1.738-6.95-8.248-23.114-31.092-23.114c-9.939,0-17.734,2.841-23.169,8.444   C33.266,43.002,31.853,56.79,32.159,66.818z"/></g></svg>